<svg xmlns="http://www.w3.org/2000/svg" xmlns:xlink="http://www.w3.org/1999/xlink" width="378" height="378" viewBox="0 0 378 378">
  <defs>
    <clipPath id="clip-path">
      <rect id="長方形_49" data-name="長方形 49" width="354.581" height="354.846" fill="none"/>
    </clipPath>
    <clipPath id="clip-path-3">
      <rect id="長方形_44" data-name="長方形 44" width="167.327" height="161.094" fill="none"/>
    </clipPath>
    <clipPath id="clip-path-5">
      <rect id="長方形_46" data-name="長方形 46" width="168.044" height="174.543" fill="none"/>
    </clipPath>
    <clipPath id="clip-path-6">
      <rect id="長方形_47" data-name="長方形 47" width="168.045" height="174.543" fill="none"/>
    </clipPath>
  </defs>
  <g id="グループ_47" data-name="グループ 47" transform="translate(-25 -77.371)">
    <path id="パス_20" data-name="パス 20" d="M191.815,0C297.751,0,383.629,84.618,383.629,189S297.751,378,191.815,378,5.629,293.382,5.629,189,85.878,0,191.815,0Z" transform="translate(19.371 77.371)" fill="#646464" opacity="0.547"/>
    <text id="ス" transform="translate(84 300.271)" fill="#df7c3e" stroke="#df7c3e" stroke-miterlimit="10" stroke-width="6" font-size="52" font-family="YuseiMagic-Regular, Yusei Magic"><tspan x="0" y="0">ス</tspan></text>
    <text id="ポ" transform="translate(138.2 300.271)" fill="#ffec5c" stroke="#ffec5c" stroke-miterlimit="10" stroke-width="6" font-size="52" font-family="YuseiMagic-Regular, Yusei Magic"><tspan x="0" y="0">ポ</tspan></text>
    <text id="フェ" transform="translate(195.916 300.271)" fill="#53a849" stroke="#53a849" stroke-miterlimit="10" stroke-width="6" font-size="52" font-family="YuseiMagic-Regular, Yusei Magic"><tspan x="0" y="0">フェ</tspan></text>
    <text id="ス-2" data-name="ス" transform="translate(295.664 300.271)" fill="#3c91d5" stroke="#3c91d5" stroke-miterlimit="10" stroke-width="6" font-size="52" font-family="YuseiMagic-Regular, Yusei Magic"><tspan x="0" y="0">ス</tspan></text>
    <text id="_2022" data-name="2022" transform="translate(151.5 363.657)" fill="#fff" font-size="52" font-family="Futura-CondensedExtraBold, Futura" font-weight="800"><tspan x="0" y="0">2022</tspan></text>
    <text id="J_E_C" data-name="J E C" transform="translate(149 234)" fill="#df7c3e" font-size="66" font-family="Futura-CondensedExtraBold, Futura" font-weight="800"><tspan x="0" y="0">J</tspan><tspan y="0" xml:space="preserve" fill="#53a849"> E </tspan><tspan y="0" fill="#3c91d5">C</tspan></text>
    <g id="logo_bg" transform="translate(32.442 77.899)">
      <g id="グループ_46" data-name="グループ 46" transform="translate(4.267 11.049)">
        <g id="グループ_45" data-name="グループ 45" clip-path="url(#clip-path)">
          <g id="グループ_44" data-name="グループ 44">
            <g id="グループ_43" data-name="グループ 43" clip-path="url(#clip-path)">
              <g id="グループ_33" data-name="グループ 33" opacity="0.8">
                <g id="グループ_32" data-name="グループ 32">
                  <g id="グループ_31" data-name="グループ 31" clip-path="url(#clip-path-3)">
                    <path id="パス_25" data-name="パス 25" d="M0,161.094H34.853A143.5,143.5,0,0,1,167.327,34.713V0A177.7,177.7,0,0,0,0,161.094" fill="#6888ff"/>
                  </g>
                </g>
              </g>
              <g id="グループ_36" data-name="グループ 36" transform="translate(186.536)" opacity="0.8">
                <g id="グループ_35" data-name="グループ 35">
                  <g id="グループ_34" data-name="グループ 34" clip-path="url(#clip-path-3)">
                    <path id="パス_26" data-name="パス 26" d="M356.189,161.094h34.029A177.7,177.7,0,0,0,222.891,0V34.664a143.5,143.5,0,0,1,133.3,126.43" transform="translate(-222.891)" fill="#fff"/>
                  </g>
                </g>
              </g>
              <g id="グループ_39" data-name="グループ 39" transform="translate(186.536 180.303)" opacity="0.8">
                <g id="グループ_38" data-name="グループ 38">
                  <g id="グループ_37" data-name="グループ 37" clip-path="url(#clip-path-5)">
                    <path id="パス_27" data-name="パス 27" d="M390.935,215.443h-33.8a143.464,143.464,0,0,1-134.244,140.7v33.845A177.682,177.682,0,0,0,390.935,215.443" transform="translate(-222.891 -215.443)" fill="#ff6975"/>
                  </g>
                </g>
              </g>
              <g id="グループ_42" data-name="グループ 42" transform="translate(1.793 180.303)" opacity="0.8">
                <g id="グループ_41" data-name="グループ 41">
                  <g id="グループ_40" data-name="グループ 40" clip-path="url(#clip-path-6)">
                    <path id="パス_28" data-name="パス 28" d="M36.768,215.443H2.143A177.682,177.682,0,0,0,170.187,389.986v-33.9A143.468,143.468,0,0,1,36.768,215.443" transform="translate(-2.143 -215.443)" fill="#fef342"/>
                  </g>
                </g>
              </g>
            </g>
          </g>
        </g>
      </g>
    </g>
  </g>
</svg>
