<svg xmlns="http://www.w3.org/2000/svg" width="41" height="51.826" viewBox="0 0 41 51.826">
  <path id="rocket_FILL0_wght400_GRAD0_opsz48" d="M11.844,49.739l6.791-2.755q-.833-2.434-1.441-4.933t-1.057-5.061l-4.292,2.883Zm10.634-3.331H34.522A50.691,50.691,0,0,0,36.7,38.88a33.227,33.227,0,0,0,.769-6.566,36.377,36.377,0,0,0-2.114-12.941A31.8,31.8,0,0,0,28.5,8.8a31.8,31.8,0,0,0-6.855,10.57,36.378,36.378,0,0,0-2.114,12.941A33.226,33.226,0,0,0,20.3,38.88,50.691,50.691,0,0,0,22.478,46.408ZM28.5,31.673a4.485,4.485,0,0,1-3.171-7.655,4.485,4.485,0,0,1,6.342,6.342A4.321,4.321,0,0,1,28.5,31.673ZM45.156,49.739V39.873l-4.292-2.883q-.448,2.563-1.057,5.061t-1.441,4.933ZM28.5,3.55a37.507,37.507,0,0,1,9.673,12.78,38.749,38.749,0,0,1,3.139,15.984v.32L47.27,36.67a3.519,3.519,0,0,1,1.281,1.345A3.725,3.725,0,0,1,49,39.809V55.377L36.188,50.252H20.813L8,55.377V39.809a3.725,3.725,0,0,1,.448-1.794A3.519,3.519,0,0,1,9.73,36.67l5.958-4.036v-.32A38.749,38.749,0,0,1,18.827,16.33,37.507,37.507,0,0,1,28.5,3.55Z" transform="translate(-8 -3.55)" fill="#53a849"/>
</svg>
